# xmcd CD database file
# Generated: Sun Oct 19 17:44:11 2003 by KSCD
# 
# Track frame offsets:
#       150
#       12736
#       26053
#       40624
#       54568
#       66602
#       80350
#       97443
#       110368
#       123574
#
# Disc length: 1815 seconds
#
# Revision: 3
# Processed by: cddbd v1.4PL0 Copyright (c) Steve Scherf et al.
# Submitted via: Kscd 1.3.3
#
DISCID=8f07150a
DTITLE=Freddy Fender - The Freddy Fender Collection
DYEAR=1900
DGENRE=
TTITLE0=Wasted Days And Wasted Nights
TTITLE1=It's All In The Game
TTITLE2=Since I Met You Baby
TTITLE3=I Can't Stop Loving You
TTITLE4=Before The Next Teardrop Falls
TTITLE5=Tell It Like It Is
TTITLE6=Secret Love
TTITLE7=You'll Lose A Good Thing
TTITLE8=Pledging My Love
TTITLE9=Vaya Con Dios
EXTD=
EXTT0=
EXTT1=
EXTT2=
EXTT3=
EXTT4=
EXTT5=
EXTT6=
EXTT7=
EXTT8=
EXTT9=
PLAYORDER=
